<svg xmlns="http://www.w3.org/2000/svg" xmlns:xlink="http://www.w3.org/1999/xlink" width="500" height="500" viewBox="0 0 500 500"><defs><clipPath id="b"><rect width="500" height="500"/></clipPath></defs><g id="a" clip-path="url(#b)"><rect width="500" height="500" fill="#87a194"/><g transform="translate(1.666 1)"><g transform="translate(148.61 79.189)"><path d="M944.7,617.774h-7.77V560.668c-8.671-81.55-82.921-83.759-86.081-83.812-84.71,0-96.409,68.035-96.863,70.929l-7.678-1.19c.119-.776,13.031-77.509,104.6-77.509.9.013,84.462,2.285,93.768,90.971l.02.4Z" transform="translate(-742.089 -469.086)" fill="#fff" stroke="#fff" stroke-width="30"/><path d="M835.272,713.218h0c-.845,0-84.861-.954-90.01-83.138-.161-1.809-3.841-47.034,24.753-79.4,17.227-19.5,42.388-29.955,74.789-31.073l95.219-1.16,0-7.629,7.77,0-.03,89.3c.082,1.828,1.8,49.211-29.932,82.371C898.326,702.88,870.547,713.218,835.272,713.218Zm104.748-187-95.038,1.158c-30.07,1.039-53.35,10.595-69.107,28.4-26.385,29.814-22.909,73.28-22.869,73.717,1.969,31.451,16.263,53.719,42.492,66.28a103.92,103.92,0,0,0,39.774,9.673c33.042,0,58.917-9.512,76.9-28.275,29.435-30.718,27.844-76.426,27.824-76.884Z" transform="translate(-745.022 -373.596)" fill="#fff" stroke="#fff" stroke-width="30"/><path d="M747.571,494.949a98.911,98.911,0,0,0-1.739,11.169s7.226,2.431,8.823-7.372l1.7-7.118S748.473,491.831,747.571,494.949Z" transform="translate(-743.665 -417.506)" fill="#fff" stroke="#fff" stroke-width="30"/><path d="M-3.332,101.376s25.539,7.613,28.395-9.21-12.1-10.982-12.1-10.982L5.17,92.166Z" transform="translate(0 1)" fill="#fff"/></g></g></g></svg>