<svg xmlns="http://www.w3.org/2000/svg" xmlns:xlink="http://www.w3.org/1999/xlink" width="15" height="15" viewBox="0 0 15 15"><defs><clipPath id="b"><rect width="15" height="15"/></clipPath></defs><g id="a" clip-path="url(#b)"><g transform="translate(105 2114.972)"><rect width="1920" height="100" transform="translate(0 1)" fill="#f4f5f5"/><text transform="translate(1438.426 44)" fill="#3b3f48" font-size="16" font-family="Barlow-Light, Barlow" font-weight="300" letter-spacing="0.03em"><tspan x="0" y="16">About</tspan></text><text transform="translate(1512.426 44)" fill="#3b3f48" font-size="16" font-family="Barlow-Light, Barlow" font-weight="300" letter-spacing="0.03em"><tspan x="0" y="16">Portfolio</tspan></text><text transform="translate(1606.426 44)" fill="#3b3f48" font-size="16" font-family="Barlow-Light, Barlow" font-weight="300" letter-spacing="0.03em"><tspan x="0" y="16">Contact</tspan></text><g transform="translate(41.562)"><text transform="translate(11 64)" fill="#3b3f48" font-size="64" font-family="BarlowCondensed-Thin, Barlow Condensed" font-weight="200"><tspan x="0" y="0">ai</tspan></text><rect width="14" height="15" transform="translate(38 13)" fill="#f4f5f5"/><g transform="matrix(0.996, 0.087, -0.087, 0.996, 7.461, 6.29)"><path d="M0,62.651s18.673,19.687,47.936,4.082c0,0,27.271-15.523,16.553-49.055,0,0-2.725-11.938-13.2-17.678" transform="translate(0 5.317)" fill="none" stroke="#284b5a" stroke-miterlimit="10" stroke-width="1"/><path d="M9.361,27.848a.742.742,0,0,0,.735.314c.361-.019.984-.3.86-.752l.118.037a.08.08,0,0,0,.075-.139.682.682,0,0,0-.2-.118c.081-.028.162-.055.242-.081a.134.134,0,0,1,.02.011c.126.1-.02.27-.094.352-.035.038.028.1.065.061.1-.095.295-.257.255-.424a.349.349,0,0,0-.029-.069A7.907,7.907,0,0,1,14,26.665c.007,0,.012,0,.019-.007,1.953.782,3.726,1.771,4.64,3.743.651,1.836-.822,4.982-.52,6.856.034.212.455.079.478-.134.576-5.231.547-6.462-.508-9.016a.025.025,0,0,0,0-.015c-.7-1.414.081-3.354.618-4.841a.056.056,0,0,0,.1.045,4.677,4.677,0,0,1,2.284-1.5,1,1,0,0,0-.036.2.171.171,0,0,0,.148.184,1.787,1.787,0,0,0,.774-.011.087.087,0,0,0,.076.016,2.536,2.536,0,0,0,1.342-1.072.157.157,0,0,0-.071-.233,1.8,1.8,0,0,0-2.116.649,3.617,3.617,0,0,0-2.494,1.7c.048-.134.1-.266.138-.392a11.043,11.043,0,0,1,2.038-3.681.1.1,0,0,0,.079.014,1.087,1.087,0,0,0,.121-.041.28.28,0,0,0,.181.156c.318.1.718-.273.914-.466a2.079,2.079,0,0,0,.375-.574,1.281,1.281,0,0,0,.214-.97.116.116,0,0,0-.112-.092.548.548,0,0,0-.512-.209c-.835.02-1.446,1.1-1.365,1.9a7.872,7.872,0,0,0-1.3,1.937c.009-.062.018-.124.026-.183a6.54,6.54,0,0,0,.1-1.141,1.788,1.788,0,0,0,.111-1.79.117.117,0,0,0-.2-.02,2.068,2.068,0,0,0-.144,1.834s0,0,0,0c-.052.316-.034.662-.07.967a5.968,5.968,0,0,1-.288,1.264.057.057,0,0,0,.022.062c-.236.6-.443,1.217-.646,1.838-.121.371-.27.787-.4,1.222a10.314,10.314,0,0,0,.005-3.124.139.139,0,0,0,.145-.072,2.508,2.508,0,0,0-.112-2.432.159.159,0,0,0-.249.008,2.362,2.362,0,0,0-.361,1.527c.02.247.108.752.4.825.032,1.13.043,2.262.082,3.392,0,.026.024.033.045.027a5.393,5.393,0,0,0-.272,2.126c-1.311-3.021-2.859-5.959-4.274-8.786-.079-.158-.163-.313-.242-.47a13.16,13.16,0,0,1,.273-2.487,3.037,3.037,0,0,1,1.4-.644c.169-.031.339-.058.508-.087a.865.865,0,0,0,.5.646,1.09,1.09,0,0,0,.9-.032,1.638,1.638,0,0,0,.683-.564.4.4,0,0,0,.076-.424c-.278-.675-1.517-.677-1.977-.207a.656.656,0,0,0-.178.328,4.05,4.05,0,0,0-1.856.75,27,27,0,0,1,.974-3.243,6.7,6.7,0,0,0,1.839-.167.793.793,0,0,0,.354.408.586.586,0,0,0,.306.249c.061.023.1-.045.068-.093-.008-.013-.015-.025-.022-.037a1.253,1.253,0,0,0,.257.014,1.464,1.464,0,0,0,1.151-.534c.274-.5-.568-.66-.884-.618-.04.006-.082.019-.122.027a1.958,1.958,0,0,0-1.091.2.136.136,0,0,0-.078.143.88.88,0,0,0,.027.123,8.556,8.556,0,0,0-1.761.162c.242-.685.491-1.382.73-2.094a.827.827,0,0,0,.383-.2A1.512,1.512,0,0,0,16.2,7.4a.124.124,0,0,0-.148-.035,1.559,1.559,0,0,0-.538.544,1.738,1.738,0,0,0-.544,1.7A.137.137,0,0,0,15,9.661a.059.059,0,0,0,.023.066c-.418.967-.866,2-1.237,3.071a10.106,10.106,0,0,0-.22-2.611.2.2,0,0,0,.21-.081.087.087,0,0,0-.02-.12c-.126-.112-.24-.121-.318-.307a2.705,2.705,0,0,1-.18-.693,3.519,3.519,0,0,1-.035-.9,3.772,3.772,0,0,1,.238.9c-.021-.071-.046-.139-.065-.211a.035.035,0,0,0-.069.011,5.225,5.225,0,0,0,.2.976c.032.105.2.07.208-.032A3.9,3.9,0,0,0,13.3,7.671a.122.122,0,0,0-.223.006,3.049,3.049,0,0,0,.032,1.829,1.854,1.854,0,0,0,.235.491,27.145,27.145,0,0,1,.316,3.165c-.081.248-.155.5-.224.746a6.967,6.967,0,0,0-.718-2.295.1.1,0,0,0,.039-.079,2.543,2.543,0,0,0-.021-.292,1.139,1.139,0,0,0,.035-.656c-.084-.4-.321-1.163-.87-1.1-.494.052-.356.818-.271,1.124.114.411.388.943.846,1.03a12.455,12.455,0,0,1,.852,2.671,9.348,9.348,0,0,0-.3,3.295,82.785,82.785,0,0,0-4.325-7.526,16.356,16.356,0,0,0-.386-2.1A9.683,9.683,0,0,1,8.7,6.362a10.241,10.241,0,0,1,.48-1.082.079.079,0,0,0,.014,0c.015,0,.029-.008.044-.011a.066.066,0,0,0,.113-.011l0-.008a.1.1,0,0,0,.13.081c.636-.254,1.323-.985,1.048-1.707a.136.136,0,0,0-.145-.079A1.779,1.779,0,0,0,9.027,5.124a.015.015,0,0,1,0,0,6.806,6.806,0,0,0-.782,2.506c-.065-.292-.126-.585-.176-.879A13.565,13.565,0,0,1,7.922,3.52a.134.134,0,0,0,.173.06,1.3,1.3,0,0,0,.044-2.058.138.138,0,0,0-.172.006,1.174,1.174,0,0,0-.3.971,2.287,2.287,0,0,0,.114.652,8.128,8.128,0,0,0-.124,2.557c-.225-.627-.475-1.249-.723-1.867a.079.079,0,0,0,0-.039q-.029-.063-.062-.128l-.056-.141a.6.6,0,0,0,.024-.122.122.122,0,0,0,.221-.085,3.66,3.66,0,0,0-.326-1.141c-.012-.052-.026-.1-.037-.154A.043.043,0,0,0,6.638,2a5.028,5.028,0,0,0-.354-.593.133.133,0,0,0-.211.007A1.585,1.585,0,0,0,6.024,2.7,2.53,2.53,0,0,0,6.64,3.791,21.85,21.85,0,0,0,7.749,6.462a27.442,27.442,0,0,0,.806,3.375C7.419,8.109,6.209,6.429,4.909,4.813a.034.034,0,0,0,0-.034A9.438,9.438,0,0,1,4.1,3.03C3.982,2.7,3.885,2.34,3.763,2c.164.116.324.164.339-.065,0,0,0,0,0,0a.1.1,0,0,0,.076-.083A2.019,2.019,0,0,0,3.388.024.137.137,0,0,0,3.2.055a1.422,1.422,0,0,0,.194,1.588A7.152,7.152,0,0,0,4.456,4.262q-.844-1.023-1.741-2.01C2.7,1.629,1.455.019.8.747c-.362.4.287,1.059.568,1.3.128.109,1.133.766,1.3.4C3.341,3.38,4.033,4.3,4.737,5.211c-.253-.153-.518-.29-.785-.42-.477-.232-.945-.49-1.421-.727,0,0,0,0,0,0C2.376,3.464,1.18,2,.628,2.975c-.441.78,1.23,1.544,1.814,1.389a.162.162,0,0,0,.115-.1c.371.223.785.395,1.161.576a12.2,12.2,0,0,1,1.3.737c1.066,1.377,2.141,2.75,3.153,4.166C8.925,10.8,9.606,11.887,10.247,13a17,17,0,0,0-3.9-2.976c0-.005,0-.01,0-.015-.319-.5-.62-1.094-.988-1.609a.223.223,0,0,0,.065-.042.519.519,0,0,0,.141.071.121.121,0,0,0,.152-.161A2.073,2.073,0,0,0,3.989,6.721c-.067,0-.152.042-.151.121a1.916,1.916,0,0,0,.834,1.317,1.577,1.577,0,0,0,.4.223c.341.509.672,1.03,1.048,1.507C5.035,9.268,3.918,8.7,2.835,8.141c-.005-.008-.008-.016-.013-.024a.165.165,0,0,0,.073-.129A.083.083,0,0,0,2.824,7.9a.561.561,0,0,0-.145.005,4.615,4.615,0,0,0-1.061-1C1.28,6.674.543,6.4.448,7.048.34,7.793,1.682,8.241,2.422,8.219a1.759,1.759,0,0,1,.347.215.092.092,0,0,0,.134-.02c1.1.656,2.223,1.253,3.32,1.886A5.586,5.586,0,0,0,4.5,10.287a.471.471,0,0,0-.368-.346,1.758,1.758,0,0,0-1.436.821.149.149,0,0,0,.1.231c.375.061,1.522.08,1.66-.433a.138.138,0,0,0,.047-.051,6.536,6.536,0,0,1,2.089.011,20.894,20.894,0,0,1,3.715,2.663.033.033,0,0,0,.043,0c.988,1.731,1.883,3.513,2.789,5.3.533,1.052,1.084,2.124,1.634,3.212A16.482,16.482,0,0,0,9.32,17.159a6.912,6.912,0,0,1-.842-1.129,5.468,5.468,0,0,1-.408-.984.15.15,0,0,0,.167-.09,1.315,1.315,0,0,0-.042-.939,2.659,2.659,0,0,0-.231-.943.138.138,0,0,0-.133-.082.29.29,0,0,0-.283-.147.611.611,0,0,0-.429.453,1.472,1.472,0,0,0,.374,1.443.687.687,0,0,0,.321.49.068.068,0,0,0,.09-.073c0-.007,0-.015,0-.023a4.364,4.364,0,0,0,1.008,1.787c-.992-.568-1.995-1.113-2.958-1.677-.012-.024-.02-.049-.034-.073a.138.138,0,0,0,0-.014,1.158,1.158,0,0,0-.534-.57,2.5,2.5,0,0,0-1.235-.541.609.609,0,0,0-.272.036,1.445,1.445,0,0,0-.179-.007.145.145,0,0,0-.11.2c.027.05.059.094.088.141a1.318,1.318,0,0,0,.476.894,2.049,2.049,0,0,0,1.288.473.6.6,0,0,0,.44-.262c1.635,1.1,3.365,1.978,4.989,3.012a4.122,4.122,0,0,0-.785-.082c-.69-.01-1.374.006-2.06-.008a.87.87,0,0,0-.147-.2,1.2,1.2,0,0,0-1.712-.126c-.172.148-.413.4-.3.648a.793.793,0,0,0,.6.376,2.7,2.7,0,0,0,2.073-.3.123.123,0,0,0,.041-.088,8.316,8.316,0,0,1,2.649.018c.284.187.565.378.839.578.013.015.027.027.04.043a.03.03,0,0,0,.033.011,13.247,13.247,0,0,1,2.889,2.838.04.04,0,0,0,.032.016,77.4,77.4,0,0,1,3.291,7.3,7.079,7.079,0,0,0-2.078-2.006,6.1,6.1,0,0,1-1.506-2.267l.009,0,.014.018a.065.065,0,0,0,.077.016c.025.042.052.079.075.123.054.143.27.046.217-.1a1.417,1.417,0,0,0-.078-.168c.249-.194.095-.536-.148-.783a1.329,1.329,0,0,0-.792-.553.156.156,0,0,0-.172.139c-.017.41.157,1.193.635,1.3a6.33,6.33,0,0,0,.87,1.792,20.486,20.486,0,0,0-2.351-1.078,10.071,10.071,0,0,1-1.661-1.863.5.5,0,0,0,.433-.24c.145-.286-.088-.523-.328-.65a2.49,2.49,0,0,0-1.127-1.376.148.148,0,0,0-.218.065,1.666,1.666,0,0,0,.853,2.169c.039.009.083.017.128.023a5.972,5.972,0,0,0,1.265,1.616c-1.072-.407-2.137-.78-3.1-1.187a.1.1,0,0,0-.043-.063.352.352,0,0,0-.044-.021,1.709,1.709,0,0,0-.73-.916c-.255-.162-1.04-.423-1.233-.036-.163.324.459.655.661.766a4.579,4.579,0,0,0,.734.332,1.232,1.232,0,0,0,.377.165c.034.008.057-.033.045-.061a.4.4,0,0,0,.069,0,35.179,35.179,0,0,0,4.253,1.729,5.054,5.054,0,0,0-2.209.427.66.66,0,0,0-.125-.055,1.734,1.734,0,0,0-1.278.122C9.579,27.081,9.195,27.519,9.361,27.848Zm.734-3.574-.014,0c-.137-.047-.279-.091-.411-.14a.051.051,0,0,0-.036,0,.523.523,0,0,0-.236-.111.1.1,0,0,0-.1.032,1.738,1.738,0,0,1-.7-.394.132.132,0,0,0-.015-.015h0A.786.786,0,0,1,8.85,23.6a1.027,1.027,0,0,1,.626.134,2.117,2.117,0,0,1,.488.4C10,24.166,10.048,24.219,10.1,24.275Zm2.12-1.348a.223.223,0,0,0-.107-.077h0a1.571,1.571,0,0,1-.253-.277c-.069-.1-.24-.012-.171.1.025.039.051.077.076.115a.05.05,0,0,0-.087.05c.105.212.22.419.34.62a.775.775,0,0,1-.415-.343,1.768,1.768,0,0,1-.305-1.148A2.322,2.322,0,0,1,12.216,22.926Zm.092.587c-.013,0-.024,0-.037-.005-.02-.026-.039-.054-.059-.081.019,0,.035-.018.024-.042-.032-.065-.061-.131-.092-.2a.12.12,0,0,0,.167-.085c.062.124.121.252.177.384A.669.669,0,0,1,12.307,23.514ZM7.829,18.681a.419.419,0,0,1,.119-.068,2.119,2.119,0,0,0,.48.1l.032.021a.119.119,0,0,1-.062.038h0c.005-.042-.051-.059-.078-.034a.394.394,0,0,1-.063.048c-.043,0-.085,0-.118-.008s-.04.035-.024.055A.415.415,0,0,1,7.829,18.681Zm.506-.221-.034,0a.578.578,0,0,0-.714.132.118.118,0,0,0,0,.162A1.279,1.279,0,0,0,7.842,19c-.1.014-.2.029-.3.034-.19.008-1.1.029-.853-.376a.989.989,0,0,1,1.357-.4A1.405,1.405,0,0,1,8.335,18.46ZM5.117,15.488a.061.061,0,0,0,.089.053c.053-.023.1-.05.153-.068a4.435,4.435,0,0,0,.491.172.474.474,0,0,1-.415.1,2.264,2.264,0,0,1-.926-.353,1.013,1.013,0,0,1-.129-.118.042.042,0,0,0,0-.053,3.046,3.046,0,0,1-.258-.471,2.631,2.631,0,0,1,.615.076.066.066,0,0,0,.031.062c.2.13.4.244.595.364C5.221,15.254,5.11,15.307,5.117,15.488Zm2.461-1.223a1.133,1.133,0,0,1-.166-.62.7.7,0,0,1,.172-.507.14.14,0,0,1,.186,0c-.005.025-.007.051-.011.077-.126.063-.17.253-.187.375A2.509,2.509,0,0,0,7.578,14.265ZM4.094,10.69c-.118.027-.236.054-.351.081a.065.065,0,0,0,.014.127c.03,0,.059,0,.089,0a.05.05,0,0,0,0,.055,2.039,2.039,0,0,1-.868.239,2.04,2.04,0,0,1,.53-.461c.121-.072.351-.218.5-.126A.382.382,0,0,1,4.094,10.69ZM1.8,8.366l-.2-.085c-.069-.029-.116.085-.051.119s.112.055.167.084a2.521,2.521,0,0,1-.389-.053C1.085,8.378.163,8.161.307,7.76.467,7.311,1.228,7.871,1.8,8.366Zm2.983.017.078.076A.466.466,0,0,1,4.8,8.444a3.349,3.349,0,0,0-.532-.453c-.05-.034-.1.038-.062.08l.03.036-.023-.019a1.809,1.809,0,0,1-.545-.677A1.875,1.875,0,0,1,5.026,8.4s-.008.005-.011.009a.79.79,0,0,1-.174-.1C4.8,8.274,4.745,8.345,4.782,8.382ZM.7,4.22c.078.034.155.071.23.112.02.011.179.1.279.175a.652.652,0,0,0,.078.078s0,.008,0,.01a.036.036,0,0,0,0,.051L1.24,4.639A2.468,2.468,0,0,1,.969,4.47,1.893,1.893,0,0,1,.7,4.22Zm.771.223A.675.675,0,0,0,1.4,4.437a.055.055,0,0,0-.047.028.8.8,0,0,0-.2-.184,1.34,1.34,0,0,1-.112-.215c-.014-.034-.073-.011-.061.024s.03.075.046.111a4.041,4.041,0,0,0-.576-.278.1.1,0,0,0-.112.142,2,2,0,0,0,.316.414c-.417-.161-.755-.409-.583-.7C.385,3.239,1.124,3.97,1.469,4.443ZM.958,2.549a.058.058,0,0,0,.1-.054.97.97,0,0,0-.106-.239c.265.1.585.3.541.55A.471.471,0,0,1,1.322,2.8a1.894,1.894,0,0,1-.564-.252C.53,2.4-.033,2.019,0,1.686c.046-.452.961.252,1.059.345l.072.071a1.4,1.4,0,0,0-.34-.116.107.107,0,0,0-.132.127A.811.811,0,0,0,.958,2.549ZM2.3.832A1.9,1.9,0,0,1,3.008,2.09a.312.312,0,0,1-.13-.158c-.038-.07-.139-.011-.106.059l.023.05c-.126-.131-.253-.269-.276-.3A1.143,1.143,0,0,1,2.3.832ZM5.269,2.007a4.284,4.284,0,0,1,.37.57.1.1,0,0,0-.154.108c.05.113.1.224.151.337a.049.049,0,0,0-.03.055c.009.042.022.083.032.124A1.531,1.531,0,0,1,5.269,2.007ZM7.222,3.092c-.027-.1-.072-.2-.1-.292s-.044-.18-.059-.274a1.469,1.469,0,0,1,.1-.574A1.025,1.025,0,0,1,7.222,3.092Zm1.626,1.7A2.428,2.428,0,0,1,9.231,4,.894.894,0,0,1,8.847,4.79Zm2.867,4.835a2.636,2.636,0,0,0,.432,1.221.034.034,0,0,0-.022.015,1.425,1.425,0,0,1-.351-.478c-.1-.217-.3-.668-.166-.911.156-.277.5.132.714.582a3.061,3.061,0,0,0-.377-.521A.135.135,0,0,0,11.714,9.626Zm3.9-1.425a2.878,2.878,0,0,0-.13-1.045.107.107,0,0,0-.012-.022,1.2,1.2,0,0,1,.152-.154A1.117,1.117,0,0,1,15.609,8.2Zm-.539.561c.022-.095.046-.185.067-.28a.075.075,0,0,0-.1-.088,4.052,4.052,0,0,1,.279-1.022,2.165,2.165,0,0,1,.027,1.175A1.406,1.406,0,0,1,15.07,8.762Zm1.758,2.446a.353.353,0,0,1,.144-.363,1.031,1.031,0,0,1,.246-.154.086.086,0,0,0,.043.029.424.424,0,0,1,.143.043.318.318,0,0,1,.01.055.068.068,0,0,0,.085.067.167.167,0,0,0,.079.082.071.071,0,0,0,.1-.042.3.3,0,0,0,0-.192.24.24,0,0,0-.064-.138h0a.956.956,0,0,1,.127,0c.234.021.483.064.248.279A1.393,1.393,0,0,1,16.829,11.208Zm-.056,2.086a1.071,1.071,0,0,0-.4.355.062.062,0,0,0-.06-.028c-.157.021-.321.052-.487.087a.939.939,0,0,1,.647-.384A2.515,2.515,0,0,1,16.772,13.294Zm.322.682c.046-.075.108-.146.087-.234-.037-.149-.325-.1-.421-.094a.122.122,0,0,0-.04.012.625.625,0,0,1,.5-.2c.286.04.139.333.017.48A1.077,1.077,0,0,1,17.095,13.976Zm-1.3-.016a3.121,3.121,0,0,0,.516-.207c-.015.027-.034.05-.047.078a.121.121,0,0,0,.209.123,1.819,1.819,0,0,1,.2-.244.106.106,0,0,0,0,.091c.019.042.039.083.06.124a.112.112,0,0,0,.1.057.229.229,0,0,1,.045.008h-.035c-.04,0-.051.062-.01.069s.109.013.166.018h0c0,.038.05.039.06.006.016,0,.03,0,.047.005-.344.3-.88.5-1.21.074A.5.5,0,0,1,15.79,13.96Zm2.757,4.79a2.465,2.465,0,0,1,.211,1.651c0,.009,0,.018,0,.027A1.75,1.75,0,0,1,18.547,18.751Zm1.6-.7a1.716,1.716,0,0,0-.018-.177.037.037,0,0,0-.047-.026,1.553,1.553,0,0,1-.019-.846A1.858,1.858,0,0,1,20.151,18.054Zm2.407-.838c.21-.286.289-.59.018-.815a.071.071,0,0,0-.034-.014,1.487,1.487,0,0,1,.32-.2.753.753,0,0,1,0,.519,2.537,2.537,0,0,1-.132.331A1.166,1.166,0,0,1,22.558,17.216Zm-.215-.5c-.087.07-.168.145-.25.218a2.021,2.021,0,0,1,.374-.476s0,0,0,.006a.736.736,0,0,1-.011.3A.067.067,0,0,0,22.343,16.715Zm-.49.844c0-.028.008-.055.014-.083.179-.224.366-.447.569-.667a.067.067,0,0,0,.016-.04A1.417,1.417,0,0,1,21.853,17.559Zm-.261-.126a1.627,1.627,0,0,1,.681-1.373.5.5,0,0,1,.424-.044,2.129,2.129,0,0,0-1.051,1.356C21.627,17.391,21.61,17.412,21.591,17.432Zm.654,3.225a.821.821,0,0,1,.111-.277l.124-.065a.043.043,0,0,0-.012-.081,1.6,1.6,0,0,1,1.292-.48,3.054,3.054,0,0,1-.567.688A4.888,4.888,0,0,1,22.245,20.658Zm-6.746,3.5a1.338,1.338,0,0,1-.184-.535.942.942,0,0,1,.486.445l-.019-.018a.13.13,0,0,0-.21.062A.045.045,0,0,0,15.5,24.158Zm-3.925,3.451c.083-.155.073-.347.257-.449a.54.54,0,0,1,.151-.056.582.582,0,0,1,.018.118c-.006.194-.183.311-.353.366C11.625,27.6,11.6,27.6,11.574,27.609Zm-.373-.522a1.275,1.275,0,0,1,.9-.346l.06,0c-.079.043-.153.087-.229.132a.6.6,0,0,0-.269.094.871.871,0,0,0-.174.169l-.089.054a.049.049,0,0,0,0,.083.369.369,0,0,0-.011.373.515.515,0,0,1-.323-.05C10.883,27.483,11.1,27.2,11.2,27.088Z" transform="translate(48.602)" fill="#284b5a"/><g transform="translate(5.883 72.658)"><path d="M12.994,11.465a1.8,1.8,0,0,0,.275-2.2A3.618,3.618,0,0,0,12.736,6.3c.1.1.2.2.3.287A11.052,11.052,0,0,1,15.56,9.95a.1.1,0,0,0-.045.067,1.1,1.1,0,0,0-.012.127.28.28,0,0,0-.216.1c-.22.25-.045.767.05,1.025a2.071,2.071,0,0,0,.37.577,1.281,1.281,0,0,0,.8.593.116.116,0,0,0,.13-.065.427.427,0,0,0,.062-.019c-.013-.035-.03-.067-.04-.1.019.034.039.065.06.1a.488.488,0,0,0,.22-.178,1.582,1.582,0,0,1-.3-.7c.024.015.047.03.07.047.1.188.19.382.279.58a.927.927,0,0,0,.054-.1,1.035,1.035,0,0,0,.077-.434,1.86,1.86,0,0,0-.224-.2c-.011-.025-.023-.049-.034-.074a1.964,1.964,0,0,1,.245.142A1.967,1.967,0,0,0,15.86,9.97a7.847,7.847,0,0,0-1.233-1.983l.156.1a6.5,6.5,0,0,0,1,.563,1.787,1.787,0,0,0,1.586.835.116.116,0,0,0,.1-.174,2.067,2.067,0,0,0-1.614-.883h0c-.267-.177-.59-.3-.853-.46a5.941,5.941,0,0,1-1.034-.78.057.057,0,0,0-.065-.006c-.449-.461-.929-.9-1.412-1.343-.289-.262-.607-.569-.949-.868a10.316,10.316,0,0,0,2.848,1.285.139.139,0,0,0,.006.162,2.507,2.507,0,0,0,2.264.894.159.159,0,0,0,.094-.231,2.361,2.361,0,0,0-1.245-.955c-.233-.083-.73-.21-.917.029-1.044-.434-2.081-.888-3.128-1.315-.024-.01-.04.009-.044.03A5.389,5.389,0,0,0,9.59,3.75c.758.01,1.518.005,2.277-.007-.661-.1-1.326-.192-1.989-.294-.918-.01-1.835-.038-2.746-.094a5.883,5.883,0,0,0,.957-.237C7.993,3.1,7.9,3.074,7.8,3.05a5.694,5.694,0,0,1-1.574.24C4.286,3.131,2.021.5.188,0-.019-.051-.071.387.114.5c4.535,2.67,5.67,3.148,8.432,3.233a.025.025,0,0,0,.014.006c1.577-.06,3.026,1.449,4.162,2.548-.043-.037-.11.02-.082.072a4.679,4.679,0,0,1,.432,2.7,1.009,1.009,0,0,0-.166-.114.172.172,0,0,0-.229.06,1.785,1.785,0,0,0-.307.71.087.087,0,0,0-.046.062,2.536,2.536,0,0,0,.428,1.664A.157.157,0,0,0,12.994,11.465Z" fill="#284b5a"/><path d="M0,.046.023.061A2.464,2.464,0,0,0,1.615.545,1.751,1.751,0,0,0,0,.046Z" transform="translate(15.284 7.42)" fill="#284b5a"/><path d="M.409.355C.405.307.4.262.4.215A.82.82,0,0,0,.194,0,4.878,4.878,0,0,0,0,.953a3.044,3.044,0,0,0,.4.8A1.6,1.6,0,0,0,.487.377.043.043,0,0,1,.409.355Z" transform="translate(13.451 10.557)" fill="#284b5a"/><path d="M.211.024A.037.037,0,0,1,.169.056C.11.041.055.02,0,0A1.856,1.856,0,0,0,.99.353,1.554,1.554,0,0,0,.211.024Z" transform="translate(16.878 9.713)" fill="#284b5a"/><path d="M.051.136A2.6,2.6,0,0,0,.3.393.753.753,0,0,0,.774.6,1.492,1.492,0,0,0,.722.229.069.069,0,0,1,.7.253C.415.392.189.25.02,0L0,.006A1.043,1.043,0,0,0,.051.136Z" transform="translate(16.696 12.349)" fill="#284b5a"/><path d="M.594,1.446a.5.5,0,0,0,.134-.4A1.485,1.485,0,0,0,0,0,1.24,1.24,0,0,1,.013.136,2.15,2.15,0,0,1,.594,1.446Z" transform="translate(17.099 11.424)" fill="#284b5a"/></g><g transform="translate(13.127 32.61)"><path d="M24.524,25.673a3.347,3.347,0,0,0,.776.365.25.25,0,0,0,.264-.058,7.962,7.962,0,0,1,1.515,1.972c.377.534.722,1.09,1.081,1.637a9.233,9.233,0,0,0-.963-.713c-.891-.564-2.522-1.8-3.608-1.635a.171.171,0,0,0-.142.156c-.166,2.452,2.1,4.882,3.67,6.679a11.483,11.483,0,0,0-7.22-.876.156.156,0,0,0-.092.253,10.277,10.277,0,0,0,5.021,3.221c2.048.6,5.245.777,6.255,3.06a2.634,2.634,0,0,1-.146,1.539q-2.213,1.8-4.509,3.493a7.3,7.3,0,0,0,1.246-1.824c.343-.742.689-2.531-.577-2.727-1.085-.168-1.651,1.568-1.9,2.326-.31.93-.936,2.475-.617,3.468l-.026.018a.1.1,0,0,0-.043.128C18.762,50.22,6.8,40.667.365,43.443c-.291.125-.521.623-.231.5,7.355-3.144,20.414,7.13,27.141.833a13.131,13.131,0,0,0,3.974,1.6c.763.118,2.652.114,2.768-1.018.2-1.941-3.225-2.111-5.3-1.67q1.065-.824,2.109-1.672a.142.142,0,0,0,.057-.047h0q2.178-1.761,4.267-3.6a13.966,13.966,0,0,0,5.717,2.1c1.208.092,3.658-.062,4.172-1.517.382-1.082-1.921-1.539-2.579-1.628a18.2,18.2,0,0,0-6.722.522q1.485-1.329,2.923-2.69c.364-.347.723-.7,1.082-1.051a.056.056,0,0,0,.046.008c2.573-.631,4.792.814,7.066,1.782a11.376,11.376,0,0,1,5.518,5.972.17.17,0,0,0,.311-.015c.842-1.683.113-5.483-1.681-6.816a11.6,11.6,0,0,1,4.264,1.794,1.086,1.086,0,0,0-.041.134c-.137.6.388.721.837.645.036.018.068.038.109.056a.238.238,0,0,0,.313-.235.281.281,0,0,0-.068-.375c-.164-.123-.328-.235-.5-.34a.957.957,0,0,0-.17-.1l-.033-.019a.266.266,0,0,0-.167-.03A18.655,18.655,0,0,0,50.9,34.827c.355.034.713.058,1.072.064a.08.08,0,0,0,.054.116c1.565.3,3.185-.013,4.764.262a.2.2,0,0,0,.2.321,2.28,2.28,0,0,1,1.141.051.286.286,0,0,0,.356-.182,2.474,2.474,0,0,0,.256-.065c.289-.09.194-.586-.1-.58a5.46,5.46,0,0,0-.778.075.246.246,0,0,0-.109.046,2.732,2.732,0,0,1-.349-.039.119.119,0,0,0-.1.194l.006.007c-.018,0-.036,0-.053.007a.151.151,0,0,0-.072-.038,16.573,16.573,0,0,0-3.678-.289c1.776-.272,3.983-1.033,4.53-2.45a.178.178,0,0,0-.109-.227c-1.42-.322-2.8-.744-4.2-1.007,1.3-.155,2.614-.418,3.92-.489a.381.381,0,0,0-.007.047c-.024.01-.051.017-.077.026-.155.059-.079.257.05.283a2.509,2.509,0,0,0,1.823-.29c.224-.123.268-.516-.028-.594a1.746,1.746,0,0,0-1.593.322c-1.551.238-3.147.239-4.684.595-.073-.011-.145-.023-.216-.036a34.657,34.657,0,0,0,4-1.212.1.1,0,0,0,.1-.011L57,29.724l.044-.011a.1.1,0,0,0,.044.033.2.2,0,0,0,.289.075l.158-.1a2.423,2.423,0,0,0,1.211-.616.286.286,0,0,0-.232-.5,1.921,1.921,0,0,0-1.4.8c-.047.028-.1.063-.144.1-.113.019-.123.023-.02.014-.025.019-.05.034-.076.054-.011.009-.01.02-.016.031a.405.405,0,0,0-.453.049q-.186.057-.372.119c-.345.122-.686.252-1.028.383a16.134,16.134,0,0,1-1.675.571,16.276,16.276,0,0,0,4.385-3.2.2.2,0,0,0-.112-.35c-2.589-.278-4.874.754-7.144,1.888-3.2,1.6-6.319,3.322-9.814,4.145q2.547-2.541,4.929-5.227a.48.48,0,0,0,.039.109.084.084,0,0,0,.128.028.609.609,0,0,0,.223-.429A6.243,6.243,0,0,0,49.015,28c.817-.067,2.365-.184,2.773-1.08.5-1.1-.515-1.557-1.5-1.555a7.08,7.08,0,0,0-3.394,1.1q1.191-1.4,2.332-2.833a5.644,5.644,0,0,0,3.2.524c.9-.063,2.375-.236,2.8-1.206.458-1.047-.6-1.35-1.471-1.332a8.324,8.324,0,0,0-3.945,1.255c.863-1.111,1.709-2.235,2.523-3.382a4.2,4.2,0,0,0,3,.422c.68-.106,2.069-.414,2.143-1.313.064-.778-1.012-.912-1.579-.9a6.036,6.036,0,0,0-2.945.9q.919-1.326,1.789-2.682c.632.75,2.268.5,3.09.364.79-.13,2.45-.364,2.828-1.24.5-1.156-.824-1.339-1.685-1.327A6.456,6.456,0,0,0,55.5,14.936a2.111,2.111,0,0,0,.14-.443c.5-.81.987-1.627,1.458-2.454h0a.1.1,0,0,0,.012.077c.534.764,2.546.189,3.21-.017.748-.232,2.235-.656,1.963-1.707-.4-1.527-3.519-.194-4.768.9.431-.776.856-1.557,1.263-2.348.618.7,4.391-.1,4.585-1.279.254-1.551-3.59.129-4.344.868a.062.062,0,0,1,0-.012s0,0,0,0c.006-.031.011-.063.018-.094.265-.523.528-1.049.782-1.579a.1.1,0,0,0,.137-.008l.046-.046a.047.047,0,0,0,.036.025,3.687,3.687,0,0,0,1.129-.249,8.65,8.65,0,0,0,1.273-.376c.463-.2,1.46-.768,1.185-1.446-.256-.63-1.194-.235-1.617-.031a5.883,5.883,0,0,0-1.742,1.167l.132-.287c.031.064.133.087.155,0,.05-.2.1-.409.13-.622.067-.147.137-.292.2-.439a.167.167,0,0,0,.217-.011c.055-.049.113-.1.17-.147,1.074-.48,4.094-2.3,2.444-3.178-.577-.306-1.253.622-1.523.993-.11.151-.245.33-.379.521A4.263,4.263,0,0,0,62,2.182,4.242,4.242,0,0,0,62.212.934C62.2.574,61.994-.195,61.46.046c-.424.192-.3,1.125-.278,1.472a4,4,0,0,0,.229,1.442.086.086,0,0,0,0,.06l.01.03a.1.1,0,0,0,.132.069c-.073.117-.142.235-.2.353-.084.076-.167.153-.242.234a.085.085,0,0,0-.052.046c-.008.016-.016.032-.023.048a2.1,2.1,0,0,0-.164.2.082.082,0,0,0,.015.108c-.042.088-.086.174-.127.261a2.716,2.716,0,0,0-.325-1.52c-.186-.313-.969-1-1.364-.586-.376.393-.175,1.1-.01,1.544a2.451,2.451,0,0,0,.809,1.259.639.639,0,0,0,.084.2c.05.073.142.023.162-.044a1.084,1.084,0,0,0,.129.2q-.512,1.049-1.051,2.086a4.953,4.953,0,0,0-.129-2.051c-.157-.486-.793-1.619-1.491-1.4-.663.205-.555,1.166-.408,1.695a5.654,5.654,0,0,0,1.1,2.14,1.564,1.564,0,0,0,.084.286.082.082,0,0,0,.156-.028.017.017,0,0,0,0-.009c.068.062.136.125.208.18.012.009.026.007.038.011-.414.779-.843,1.55-1.278,2.317a5.089,5.089,0,0,0,.065-1.756c-.118-.766-.54-1.974-1.476-2.024-.683-.036-.805,1.1-.771,1.545a6.717,6.717,0,0,0,1.159,3.548,2.359,2.359,0,0,0,.067.338q-.4.671-.809,1.334c-.006-.155-.019-.3-.036-.439a4.576,4.576,0,0,0-1.247-2.965c-.8-.6-1.156.437-1.153,1.109a7.359,7.359,0,0,0,1.2,4.228s.008,0,.012.008c-.536.826-1.087,1.641-1.646,2.451a6.4,6.4,0,0,0-.212-3.6c-.232-.529-1.291-1.75-1.909-.93-.564.746-.052,2.126.19,2.9a9.777,9.777,0,0,0,1.106,2.793c-.663.931-1.347,1.846-2.041,2.754.283-1.777-.257-4.81-1.6-4.972-2.907-.352-.409,5.292.5,6.385q-1.177,1.489-2.412,2.933a5.726,5.726,0,0,0-.119-4.27c-.325-.641-1.344-1.8-2.078-.9-.666.821-.221,2.268.054,3.152a8.51,8.51,0,0,0,1.232,2.9c0,.054,0,.108,0,.161q-2.225,2.543-4.613,4.936a13.777,13.777,0,0,0,.435-4.736c-.022-.872-.428-3.482-1.729-3.413-.888.048-.926,2.45-.936,2.983a17.631,17.631,0,0,0,1.463,5.936q-1.193,1.177-2.419,2.319-2.609,2.413-5.358,4.7a8.18,8.18,0,0,0,.825-3.259c1.061-2.7,4.451-6.1,2.9-9.145a.185.185,0,0,0-.282-.062,6.138,6.138,0,0,0-2.526,3.974c-.01.081.1.1.131.028a11.462,11.462,0,0,1,1.02-2.08c.13-.178,1.438-1.914,1.551-1.149a7.326,7.326,0,0,1-.732,3.778c-.536,1.312-1.514,2.587-2.025,3.942.02-.506.017-.964.005-1.315,0-.032,0-.065,0-.1.575-1.2,1.679-2.312,1.9-3.646a.061.061,0,0,0-.11-.039c-.381.68-.694,1.392-1.1,2.062-.254.422-.49.852-.7,1.293a30.414,30.414,0,0,1,.2-5.345c.2-1.362.734-2.689.408-4.066a.176.176,0,0,0-.283-.1,9.435,9.435,0,0,0-3.75,5.663c-.077-.347-.194-.691-.26-.986a10.012,10.012,0,0,1-.089-3.374.228.228,0,0,0,.272-.073.2.2,0,0,0,.318-.079,4.21,4.21,0,0,0,.149-1.145c.013-.279-.382-.417-.518-.2a.177.177,0,0,0-.3.1,15.1,15.1,0,0,0-.236,3.955,4.149,4.149,0,0,0,.1.545c-.273-.9-.472-1.823-.689-2.722-.118-.491-.309-1.886-.918-1.985a.181.181,0,0,0-.187.12,2.553,2.553,0,0,0-.073.293.319.319,0,0,0-.027.114c-.009.223-.109.542.082.722a.306.306,0,0,0,.1.064c.035.127.067.252.114.379a.151.151,0,0,0,.278-.013,2.334,2.334,0,0,0,.074-.375c.1.307.205.62.231.737.117.529.2,1.075.362,1.593a15.71,15.71,0,0,0,1.014,2.622,2.852,2.852,0,0,1,.027.346c-.233-.287-.483-.56-.742-.824-.723-1.116-1.413-2.252-2.175-3.341a5.178,5.178,0,0,0-1.085-1.227.214.214,0,0,0-.12-.175.3.3,0,0,0-.058-.039c.019-.232-.255-.461-.465-.257l-.116.111a2.3,2.3,0,0,0-.257-.053A.2.2,0,0,0,24.524,25.673Zm16.047,6.751a10.451,10.451,0,0,0-.161-2.762.147.147,0,0,0-.29.013,7.538,7.538,0,0,0-.127,1.261,18.843,18.843,0,0,1-.731-2.152,7.14,7.14,0,0,1-.021-3.478c.062-.227.332-1.335.852-.675a3.855,3.855,0,0,1,.641,1.1,7.361,7.361,0,0,1,.333,2.93A14.51,14.51,0,0,1,40.571,32.424ZM61.731,2.183c.009-.2.025-.4.037-.6a.053.053,0,0,0-.086-.044.732.732,0,0,0-.193.456A2.972,2.972,0,0,1,61.476.416c.087-.233.326-.162.41.057a1.823,1.823,0,0,1,.033.893A5.431,5.431,0,0,1,61.731,2.183Zm.769.824a5.737,5.737,0,0,0-.771.529c.1-.19.2-.378.316-.562.275-.449.807-1.485,1.407-1.551.7-.077.351.913.083,1.167a6.166,6.166,0,0,1-1.031.778c-.08.05-.171.1-.257.143a4.816,4.816,0,0,0,.35-.39A.078.078,0,0,0,62.5,3.007ZM60.352,5.194a6.636,6.636,0,0,1-.15-.877c-.03-.139-.262-.188-.3-.025-.018.081-.036.167-.051.254a3.072,3.072,0,0,1-.353-.586,2.134,2.134,0,0,1-.27-1.311c.09-.265.383-.1.549.016a1.429,1.429,0,0,1,.6.927,6.309,6.309,0,0,1,.03,1.485C60.392,5.117,60.371,5.155,60.352,5.194Zm1.631-.046a3.245,3.245,0,0,1,.893-.37c.792-.13.227.73-.1.9a8.214,8.214,0,0,1-1.826.607l-.012,0c.135-.075.269-.149.4-.212a.08.08,0,0,0-.068-.145c-.216.091-.458.176-.686.281A5.392,5.392,0,0,1,61.983,5.148ZM58.912,7.824c-.1-.259-.242-.508-.346-.732a.161.161,0,0,0-.3.053.058.058,0,0,0,0,.013,4.6,4.6,0,0,1-.521-.914c-.145-.359-.661-2.335.354-1.62C59.085,5.322,58.968,6.671,58.912,7.824Zm2.216-.129c.18-.068,2.082-.741,1.976-.133-.143.822-1.436,1.029-2.1,1.156a8.8,8.8,0,0,1-1.5.207c.138-.029.274-.077.408-.118l.176-.055a2.1,2.1,0,0,0,.6-.21.1.1,0,0,0-.058-.188,4.9,4.9,0,0,0-.866.205c-.137.036-.28.065-.417.106A5.251,5.251,0,0,1,61.128,7.694Zm-4.283,4.04a4.129,4.129,0,0,1,.035-.894c.011-.113-.16-.188-.218-.078a1.92,1.92,0,0,0-.2.641,8.788,8.788,0,0,1-.733-2.129,4.3,4.3,0,0,1-.111-1.229c.067-.555.477-1.172,1.021-.515a4.223,4.223,0,0,1,.367,3.927Zm1.87-.024a.085.085,0,0,0-.064-.147.1.1,0,0,0-.1-.087,1.982,1.982,0,0,0-.944.232A7.626,7.626,0,0,1,59.3,10.631c.542-.253,2.191-1.072,2.673-.34.751,1.138-3.019,2.157-4.379,1.822a1.674,1.674,0,0,0,.52-.162l.124-.037A1.29,1.29,0,0,0,58.715,11.71Zm-3.944,3.406a1.653,1.653,0,0,0,.031-.334,3.426,3.426,0,0,0-.1-.921.129.129,0,0,0-.231-.05,1.13,1.13,0,0,0-.225.6,9.931,9.931,0,0,1-.6-2.23,3.121,3.121,0,0,1,.072-1.567c.278-.6.8.182.964.48a5.654,5.654,0,0,1,.725,3.008C55.2,14.442,54.988,14.779,54.772,15.116Zm-.225.224c-.013-.048-.027-.094-.041-.141a6.193,6.193,0,0,1,.032-.917,3.8,3.8,0,0,1,.039.39,3.743,3.743,0,0,1,0,.42A.59.59,0,0,1,54.546,15.34Zm.628.27a8.547,8.547,0,0,1,3.263-1.5,4.542,4.542,0,0,1,1.317-.016c.8.143.849.837.157,1.2a6.831,6.831,0,0,1-4.6.658c.071-.011.14-.02.209-.032.133-.009.266-.02.4-.025a.159.159,0,0,0,.124-.074c.246-.049.492-.1.741-.133.145-.021.1-.237-.039-.223-.319.032-.638.079-.957.12a1.711,1.711,0,0,0-.419-.011.041.041,0,0,0-.066-.027.6.6,0,0,0-.043.043C55.236,15.6,55.2,15.6,55.175,15.61Zm-2.733,2.973c-.015-.065-.024-.131-.033-.182a2.04,2.04,0,0,1-.032-.481.146.146,0,0,0-.237-.122.813.813,0,0,0-.225.353,13.019,13.019,0,0,1-1.1-3.431c-.035-.319-.134-1.215.429-1.156.8.084,1.162.87,1.3,1.578a8.658,8.658,0,0,1,.008,3.3Zm.013.752A9.252,9.252,0,0,1,55.5,18.049c.557-.069,2.489.182,1.26,1.037a4.852,4.852,0,0,1-3.5.5,1.49,1.49,0,0,0,.349-.031.158.158,0,0,0,.1-.224c.008,0,.017-.006.024-.011.071-.047.007-.148-.064-.139-.122.016-.243.036-.365.056a1.4,1.4,0,0,0-.64.1.118.118,0,0,0-.056.057C52.554,19.376,52.5,19.357,52.455,19.336Zm-3.206,3.533a4.926,4.926,0,0,0-.072-.6,4.227,4.227,0,0,0-.3-1.315.157.157,0,0,0-.289.014,2.233,2.233,0,0,0,.01,1.262c-.867-1.711-2.175-4.7-.645-4.939,1.724-.27,2.075,3.53,1.66,5.112Zm.1.61c.019-.025.037-.05.057-.074.091-.035.182-.073.273-.112a15.326,15.326,0,0,0,2.777-.4c.122-.031.091-.223-.033-.193a13.8,13.8,0,0,1-1.925.223,9.179,9.179,0,0,1,2.583-.941,3.956,3.956,0,0,1,1.285-.02c.98.186.536,1.2-.1,1.486a6.708,6.708,0,0,1-4.151.243c.4-.053.785-.163,1.182-.212.108-.014.074-.168-.029-.163-.243.015-.482.045-.724.077a1.433,1.433,0,0,0-.889.084.1.1,0,0,0-.065.072C49.51,23.527,49.426,23.506,49.348,23.479Zm-3.276,3.263a5.393,5.393,0,0,1-.027-1.4.17.17,0,0,0-.329-.07c-.013.027-.019.056-.03.084a8.953,8.953,0,0,0-.371-1.42.07.07,0,0,0-.132.024,13.3,13.3,0,0,0,.348,2.315c0,.057,0,.115,0,.172a11.114,11.114,0,0,1-1.28-3.93c-.024-.387-.07-1.149.4-1.33.895-.348,1.424.775,1.643,1.444a6.435,6.435,0,0,1-.167,4.058Zm-.031.712.12-.137c1.127-.5,2.152-1.369,3.387-1.578a3.175,3.175,0,0,1,1.5.036c.991.339.492,1.24-.129,1.507A7.268,7.268,0,0,1,46.041,27.454Zm6.069,3.421a9.246,9.246,0,0,0-2.4.131c-1.817.349-3.658.8-5.485,1.295,2.382-.938,4.665-2.145,7-3.2a22.618,22.618,0,0,1,2.544-1.044c-.051.016,3.743-.862,3.134-.3A16.292,16.292,0,0,1,52.11,30.875Zm-4.2,4.276a7.885,7.885,0,0,0-2.721-.693,30.093,30.093,0,0,0-3.123-.717c1.075.058,2.215.262,2.953.3,1.6.078,3.154.422,4.723.651a.068.068,0,0,0,.054.087c.1.016.2.034.3.053,1.673,1.217,3.46,4.513,2.439,6.566.314-.631-2.728-4.209-3.3-4.608a19.566,19.566,0,0,0-4.356-2.167c1,.207,1.989.369,2.975.641C47.919,35.278,47.973,35.189,47.91,35.151Zm-6.382-1.659a32.589,32.589,0,0,1,5.3-.38c1.834-.08,3.658-.216,5.5-.194a.048.048,0,0,0,.009-.095,26.162,26.162,0,0,0-6.1.084c-1.211.067-2.422.066-3.614.217,1.169-.273,2.342-.526,3.5-.842a18.074,18.074,0,0,1,5.715-1.095,32.2,32.2,0,0,1,5.441,1.128c.492.112-1.772,1.392-1.863,1.428a10.273,10.273,0,0,1-1.647.564,13.625,13.625,0,0,1-5.149-.2c-1.66-.288-3.329-.293-5-.427C43.057,33.638,42.281,33.511,41.528,33.492ZM35.3,38.256c.175-.012.349-.03.523-.052l-.025.006a.08.08,0,0,0,.007.159c.952.124,2.167-.2,3.045.3a2.006,2.006,0,0,1-.772.106c-.624-.108-1.241-.256-1.868-.346-.154-.022-.212.234-.058.27a7.247,7.247,0,0,0,2.36.37c.155.021.31.044.467.052a.113.113,0,0,0,.073-.2,1.633,1.633,0,0,0,.192-.083.158.158,0,0,0,.022-.269,3.578,3.578,0,0,0-2.52-.506,28,28,0,0,1,3.208-.535,10.083,10.083,0,0,1,2.71.123c.364.077,3.006.661,1.769,1.614C41.751,41.331,37.953,39.713,35.3,38.256Zm-7.774,6.327.412-.31a16.089,16.089,0,0,1,3.622-.308,3.018,3.018,0,0,1,1.431.351c.591.368,1.128,1.146.167,1.572-1.5.667-3.006-.082-4.438-.77.273.009.551-.007.824.006a.107.107,0,0,0,.017-.213c-.131-.013-.263-.02-.4-.027a.129.129,0,0,0-.12-.176c-.34,0-.681-.024-1.021-.005a.114.114,0,0,0-.092.05C27.8,44.692,27.664,44.634,27.529,44.583Zm-1.042-.87a5.974,5.974,0,0,0-.734,1.025,7.276,7.276,0,0,1-.436.623,7.164,7.164,0,0,0,.545-1.206c.025-.076-.076-.163-.139-.1-.019.019-.035.041-.052.061a.089.089,0,0,0-.15.014c-.24.417-.437.853-.635,1.289a16.618,16.618,0,0,1,.425-2.114c.237-.827.544-2.2,1.316-2.71.75-.494,1.215.7,1.117,1.272a4.357,4.357,0,0,1-.8,1.776,11.361,11.361,0,0,1-.771.961,5.133,5.133,0,0,0,.455-.8A.09.09,0,0,0,26.488,43.713Zm5.41-3.867c.751-1.17.4-2.7.252-4a17.8,17.8,0,0,1,.42-7.16c.014-.05-.056-.093-.084-.043a8.9,8.9,0,0,0-.781,5.012c.034.567.109,1.152.184,1.742a9.4,9.4,0,0,0-.72-1.975A13.321,13.321,0,0,0,30.1,31.669a8.583,8.583,0,0,1,1.99-4.907c.676-.817,1.893-2.228,1.518-.146-.141.781-.36,1.563-.429,2.355-.19,2.176-.094,4.253-.133,6.417-.028,1.561-.233,4.284-1.576,5.424A4.564,4.564,0,0,0,31.9,39.846Zm-4.443-5.3a.09.09,0,0,0,.072,0c.49.565,1.15,1.25,1.773,2a6.059,6.059,0,0,0-1.565-.749,19.082,19.082,0,0,0-4.247-.989c-.066-.005-.112.094-.046.129a16.727,16.727,0,0,0,3.427.925,7.629,7.629,0,0,1,3.216,1.712A8.026,8.026,0,0,1,30.7,38.6c-1.093-1.352-3.6-1.655-5.037-2.076a12.932,12.932,0,0,1-3.43-1.393c-.723-.473-2.819-1.709-.887-1.816A11.57,11.57,0,0,1,27.454,34.547Zm1.74-3.416c.134.164.268.338.4.518,0,.011,0,.025-.008.036a.063.063,0,0,0,.089.078c.071.1.143.2.212.3.005.019.006.038.012.057a.087.087,0,0,0,.064.06c1.473,2.231,2.525,5.285,1.661,7.812a6.977,6.977,0,0,0-.414-2.2,14.154,14.154,0,0,0-4.045-5.879.049.049,0,0,0-.075.064c1.146,1.62,2.692,2.931,3.467,4.8a9.331,9.331,0,0,1,.843,2.881C31,37.32,28.262,34.926,27,33.4c-1.151-1.387-2.951-3.154-3.2-5.026C23.57,26.663,28.85,30.71,29.194,31.131Z" transform="translate(0 0)" fill="#284b5a"/><path d="M.176.315A1.257,1.257,0,0,1,1.011.058a.1.1,0,0,1,.1.105,4.969,4.969,0,0,0,.63-.157c.141-.046.241.161.1.213A5.6,5.6,0,0,1,.266.571a.155.155,0,0,1-.1-.039A.447.447,0,0,1,.052.5C0,.469-.027.375.046.347A.827.827,0,0,1,.176.315Z" transform="translate(46.395 27.043)" fill="#284b5a"/><path d="M.708.029c.258.008.513.018.772.033.082,0,.091.139.007.146C1.246.227,1.008.26.766.266A1.386,1.386,0,0,1,.037.17.084.084,0,0,1,.07.018,2.717,2.717,0,0,1,.708.029Z" transform="translate(39.305 39.553)" fill="#284b5a"/><path d="M.025,1.546A24.638,24.638,0,0,1,4.712,0c.057-.011.087.079.03.1C3.209.656,1.625,1.2.051,1.631,0,1.644-.021,1.565.025,1.546Z" transform="translate(47.728 29.469)" fill="#284b5a"/><path d="M.054.075A13.7,13.7,0,0,1,2.9.082c.117.007.1.183-.017.181C1.945.245,1,.272.061.208A.068.068,0,0,1,.054.075Z" transform="translate(50.709 32.231)" fill="#284b5a"/><path d="M1.465.788c.1.051,0,.2-.1.146C.9.694.466.366.021.09A.05.05,0,0,1,.053,0C.587.071,1,.548,1.465.788Z" transform="translate(49.345 35.608)" fill="#284b5a"/><path d="M.341.365A4.084,4.084,0,0,1,.016.094C-.033.044.042-.022.1.007A9.664,9.664,0,0,1,2.4,2.088a.259.259,0,0,1,.3.143c.128.231.256.426.376.657a.221.221,0,0,1,.023.133c.01.021.021.038.031.06.134.285-.287.572-.476.3-.015-.022-.025-.045-.039-.067h0l-.006-.013a3.274,3.274,0,0,1-.4-.846.291.291,0,0,1,.036-.26c-.241-.246-.495-.485-.711-.735A9.025,9.025,0,0,0,.511.446C.482.422.443.387.4.348A.037.037,0,0,1,.341.365Z" transform="translate(51.787 35.643)" fill="#284b5a"/><path d="M2.146,2.907c.026.045-.05.1-.08.05C1.421,1.969.665,1.061.01.082A.051.051,0,0,1,.088.017,13.536,13.536,0,0,1,2.146,2.907Z" transform="translate(27.974 31.972)" fill="#284b5a"/><path d="M.711.081a6.05,6.05,0,0,0-.454,3.74A.027.027,0,0,1,.2,3.83,4.945,4.945,0,0,1,.627.024C.659-.034.741.024.711.081Z" transform="translate(31.041 29.534)" fill="#284b5a"/><path d="M.669.055A2.572,2.572,0,0,1,.1,1.087c-.043.05-.129-.006-.086-.058A8.523,8.523,0,0,0,.6.018C.624-.023.681.013.669.055Z" transform="translate(33.939 31.587)" fill="#284b5a"/><path d="M.03.1A.046.046,0,0,1,.038.008,12.054,12.054,0,0,1,1.88.162a.086.086,0,0,1-.014.171A12.024,12.024,0,0,1,.03.1Z" transform="translate(23.545 34.507)" fill="#284b5a"/></g></g></g><g transform="translate(0 10)"><rect width="1" height="481" transform="translate(1920 20) rotate(90)" fill="#dadbdc"/></g></g><text transform="translate(194 663)" fill="#87a194" font-size="12" font-family="Barlow-Medium, Barlow" font-weight="500" letter-spacing="0.15em"><tspan x="0" y="0">_ABOUT</tspan></text><g transform="translate(-18 -17.998)"><g transform="translate(-18230 -482.849)" fill="#fff"><path d="M 18262.142578125 515.1389770507812 L 18256.37109375 509.3668212890625 L 18262.142578125 515.1377563476562 L 18262.142578125 515.1389770507812 Z" stroke="none"/><path d="M 18262.140625 515.8448486328125 L 18255.42578125 509.1289978027344 L 18248.70703125 515.8448486328125 L 18248.001953125 515.1389770507812 L 18254.71875 508.4231567382812 L 18248.001953125 501.7051391601562 L 18248.70703125 500.9992980957031 L 18255.42578125 507.7163391113281 L 18262.146484375 500.9992980957031 L 18262.8515625 501.7051391601562 L 18256.1328125 508.4220581054688 L 18262.8515625 515.1389770507812 L 18262.140625 515.8448486328125 Z" stroke="none" fill="#3b3f48"/></g></g></g></svg>