<svg xmlns="http://www.w3.org/2000/svg" xmlns:xlink="http://www.w3.org/1999/xlink" width="16" height="16" viewBox="0 0 16 16"><defs><clipPath id="b"><rect width="16" height="16"/></clipPath></defs><g id="a" clip-path="url(#b)"><g transform="translate(105 2115.972)"><rect width="1920" height="93" fill="#f4f5f5"/><text transform="translate(1438.426 43)" fill="#3b3f48" font-size="16" font-family="Barlow-Light, Barlow" font-weight="300" letter-spacing="0.03em"><tspan x="0" y="16">About</tspan></text><text transform="translate(1512.426 43)" fill="#3b3f48" font-size="16" font-family="Barlow-Light, Barlow" font-weight="300" letter-spacing="0.03em"><tspan x="0" y="16">Portfolio</tspan></text><text transform="translate(1606.426 43)" fill="#3b3f48" font-size="16" font-family="Barlow-Light, Barlow" font-weight="300" letter-spacing="0.03em"><tspan x="0" y="16">Contact</tspan></text><g transform="translate(0 9)"><rect width="1" height="481" transform="translate(1920 20) rotate(90)" fill="#dadbdc"/></g><g transform="translate(-0.207 -0.717)"><g transform="translate(40 67.373)"><path d="M3.189-3.987a.051.051,0,0,1-.058.058H.942a.02.02,0,0,0-.023.023v1.563a.02.02,0,0,0,.023.023H2.494a.051.051,0,0,1,.058.058v.156a.051.051,0,0,1-.058.058H.942a.02.02,0,0,0-.023.023V-.206a.051.051,0,0,1-.058.058H.67A.051.051,0,0,1,.612-.206V-4.144A.051.051,0,0,1,.67-4.2H3.131a.051.051,0,0,1,.058.058Zm2.16.9a.744.744,0,0,1,.336.069.058.058,0,0,1,.035.075l-.052.185a.049.049,0,0,1-.075.035.719.719,0,0,0-.29-.041.7.7,0,0,0-.536.246.858.858,0,0,0-.211.588V-.206A.051.051,0,0,1,4.5-.149H4.306a.051.051,0,0,1-.058-.058v-2.8a.051.051,0,0,1,.058-.058H4.5a.051.051,0,0,1,.058.058v.394q0,.017.009.02t.014-.014a.952.952,0,0,1,.316-.353A.809.809,0,0,1,5.348-3.09ZM7.826-.1a1.135,1.135,0,0,1-.695-.214A1.06,1.06,0,0,1,6.738-.89a2.977,2.977,0,0,1-.064-.724,2.9,2.9,0,0,1,.064-.718,1.051,1.051,0,0,1,.391-.57,1.153,1.153,0,0,1,.7-.211,1.148,1.148,0,0,1,.7.214,1.025,1.025,0,0,1,.391.567,1.64,1.64,0,0,1,.046.3q.012.165.012.42t-.012.428a1.633,1.633,0,0,1-.046.3,1.025,1.025,0,0,1-.391.573A1.158,1.158,0,0,1,7.826-.1Zm0-.272a.822.822,0,0,0,.524-.171.773.773,0,0,0,.281-.449,2.963,2.963,0,0,0,.041-.614,3.387,3.387,0,0,0-.035-.614.762.762,0,0,0-.281-.452.84.84,0,0,0-.53-.168.828.828,0,0,0-.527.168.768.768,0,0,0-.278.452,3.175,3.175,0,0,0-.041.614,3.175,3.175,0,0,0,.041.614A.768.768,0,0,0,7.3-.542.828.828,0,0,0,7.826-.374ZM11.5-3.107a.981.981,0,0,1,.721.272.965.965,0,0,1,.275.718V-.206a.051.051,0,0,1-.058.058H12.25a.051.051,0,0,1-.058-.058V-2.059a.774.774,0,0,0-.208-.559.72.72,0,0,0-.544-.217.765.765,0,0,0-.562.211.742.742,0,0,0-.214.553V-.206a.051.051,0,0,1-.058.058h-.191a.051.051,0,0,1-.058-.058v-2.8a.051.051,0,0,1,.058-.058h.191a.051.051,0,0,1,.058.058v.284q0,.017.009.02t.014-.009a.835.835,0,0,1,.336-.292A1.086,1.086,0,0,1,11.5-3.107Zm3.642.243a.051.051,0,0,1-.058.058H14.41a.02.02,0,0,0-.023.023v1.83a.535.535,0,0,0,.133.414.635.635,0,0,0,.428.119h.133a.051.051,0,0,1,.058.058v.156a.051.051,0,0,1-.058.058l-.174.006A1,1,0,0,1,14.3-.3a.7.7,0,0,1-.211-.573V-2.783a.02.02,0,0,0-.023-.023h-.347a.051.051,0,0,1-.058-.058v-.145a.051.051,0,0,1,.058-.058h.347a.02.02,0,0,0,.023-.023v-.66a.051.051,0,0,1,.058-.058h.185a.051.051,0,0,1,.058.058v.66a.02.02,0,0,0,.023.023h.677a.051.051,0,0,1,.058.058Zm5.616-1.123a.051.051,0,0,1-.058.058H18.509a.02.02,0,0,0-.023.023v1.563a.02.02,0,0,0,.023.023h1.558a.051.051,0,0,1,.058.058v.156a.051.051,0,0,1-.058.058H18.509a.02.02,0,0,0-.023.023V-.444a.02.02,0,0,0,.023.023H20.7a.051.051,0,0,1,.058.058v.156a.051.051,0,0,1-.058.058H18.237a.051.051,0,0,1-.058-.058V-4.144a.051.051,0,0,1,.058-.058H20.7a.051.051,0,0,1,.058.058Zm2.478.88a.981.981,0,0,1,.721.272.965.965,0,0,1,.275.718V-.206a.051.051,0,0,1-.058.058h-.191a.051.051,0,0,1-.058-.058V-2.059a.774.774,0,0,0-.208-.559.72.72,0,0,0-.544-.217.765.765,0,0,0-.562.211.742.742,0,0,0-.214.553V-.206a.051.051,0,0,1-.058.058h-.191a.051.051,0,0,1-.058-.058v-2.8a.051.051,0,0,1,.058-.058h.191a.051.051,0,0,1,.058.058v.284q0,.017.009.02t.014-.009a.835.835,0,0,1,.336-.292A1.086,1.086,0,0,1,23.24-3.107Zm4.2-1.036A.051.051,0,0,1,27.5-4.2h.191a.051.051,0,0,1,.058.058V-.206a.051.051,0,0,1-.058.058H27.5a.051.051,0,0,1-.058-.058V-.49q0-.017-.009-.02t-.02.009a.824.824,0,0,1-.324.3.986.986,0,0,1-.457.1,1.063,1.063,0,0,1-.666-.208,1.035,1.035,0,0,1-.371-.562,1.349,1.349,0,0,1-.052-.3q-.012-.165-.012-.431t.012-.428a1.646,1.646,0,0,1,.046-.3.988.988,0,0,1,.362-.57,1.083,1.083,0,0,1,.68-.211.986.986,0,0,1,.457.1.824.824,0,0,1,.324.3q.006.017.017.014t.012-.02ZM27.362-.919a1.028,1.028,0,0,0,.055-.249q.014-.139.014-.434a4.109,4.109,0,0,0-.017-.449,1.233,1.233,0,0,0-.058-.258.722.722,0,0,0-.246-.385.69.69,0,0,0-.449-.148.759.759,0,0,0-.469.148.723.723,0,0,0-.266.379.875.875,0,0,0-.072.252,3.59,3.59,0,0,0-.02.455,3.865,3.865,0,0,0,.017.437,1.234,1.234,0,0,0,.058.252.67.67,0,0,0,.261.394.793.793,0,0,0,.486.151.69.69,0,0,0,.455-.151A.771.771,0,0,0,27.362-.919ZM39.985-3.987a.051.051,0,0,1-.058.058H37.738a.02.02,0,0,0-.023.023v1.563a.02.02,0,0,0,.023.023H39.29a.051.051,0,0,1,.058.058v.156a.051.051,0,0,1-.058.058H37.738a.02.02,0,0,0-.023.023V-.206a.051.051,0,0,1-.058.058h-.191a.051.051,0,0,1-.058-.058V-4.144a.051.051,0,0,1,.058-.058h2.461a.051.051,0,0,1,.058.058Zm2.837.979a.051.051,0,0,1,.058-.058h.185a.051.051,0,0,1,.058.058v2.8a.051.051,0,0,1-.058.058H42.88a.051.051,0,0,1-.058-.058V-.49q0-.017-.012-.02T42.793-.5a.779.779,0,0,1-.327.29,1.109,1.109,0,0,1-.483.1,1.026,1.026,0,0,1-.712-.255.894.894,0,0,1-.284-.7V-3.009a.051.051,0,0,1,.058-.058h.185a.051.051,0,0,1,.058.058v1.864a.757.757,0,0,0,.206.556.734.734,0,0,0,.547.208.773.773,0,0,0,.567-.211.742.742,0,0,0,.214-.553Zm1.83,2.86a.051.051,0,0,1-.058-.058V-4.144a.051.051,0,0,1,.058-.058h.191a.051.051,0,0,1,.058.058V-.206a.051.051,0,0,1-.058.058Zm1.772,0a.051.051,0,0,1-.058-.058V-4.144a.051.051,0,0,1,.058-.058h.191a.051.051,0,0,1,.058.058V-.206a.051.051,0,0,1-.058.058ZM50.963-.1a1.607,1.607,0,0,1-1.007-.287.92.92,0,0,1-.371-.767v-.191a.051.051,0,0,1,.058-.058h.179a.051.051,0,0,1,.058.058v.174a.688.688,0,0,0,.3.579,1.33,1.33,0,0,0,.811.22,1.171,1.171,0,0,0,.735-.2.664.664,0,0,0,.255-.553.629.629,0,0,0-.113-.373,1.112,1.112,0,0,0-.347-.3,5.608,5.608,0,0,0-.663-.318,7.49,7.49,0,0,1-.68-.318,1.1,1.1,0,0,1-.368-.321.84.84,0,0,1-.139-.5.878.878,0,0,1,.327-.732,1.43,1.43,0,0,1,.906-.258,1.535,1.535,0,0,1,.99.29.945.945,0,0,1,.359.776v.133a.051.051,0,0,1-.058.058H52a.051.051,0,0,1-.058-.058v-.116a.716.716,0,0,0-.278-.588,1.22,1.22,0,0,0-.782-.223,1.093,1.093,0,0,0-.677.182.621.621,0,0,0-.237.524.605.605,0,0,0,.11.376.923.923,0,0,0,.316.252q.206.107.634.281a5,5,0,0,1,.692.333,1.347,1.347,0,0,1,.414.373.873.873,0,0,1,.151.515.923.923,0,0,1-.347.753A1.5,1.5,0,0,1,50.963-.1Zm3.845-2.762a.051.051,0,0,1-.058.058h-.677a.02.02,0,0,0-.023.023v1.83a.535.535,0,0,0,.133.414.635.635,0,0,0,.428.119h.133a.051.051,0,0,1,.058.058v.156a.051.051,0,0,1-.058.058l-.174.006A1,1,0,0,1,53.959-.3a.7.7,0,0,1-.211-.573V-2.783a.02.02,0,0,0-.023-.023h-.347a.051.051,0,0,1-.058-.058v-.145a.051.051,0,0,1,.058-.058h.347a.02.02,0,0,0,.023-.023v-.66a.051.051,0,0,1,.058-.058h.185a.051.051,0,0,1,.058.058v.66a.02.02,0,0,0,.023.023h.677a.051.051,0,0,1,.058.058ZM57.1-3.113a1.058,1.058,0,0,1,.776.263.953.953,0,0,1,.266.709V-.206a.051.051,0,0,1-.058.058h-.191a.051.051,0,0,1-.058-.058V-.479A.019.019,0,0,0,57.827-.5q-.009-.006-.02.006a.941.941,0,0,1-.391.29,1.4,1.4,0,0,1-.536.1A1.119,1.119,0,0,1,56.2-.3a.716.716,0,0,1-.278-.62.814.814,0,0,1,.318-.677,1.385,1.385,0,0,1,.874-.249h.695a.02.02,0,0,0,.023-.023v-.261a.715.715,0,0,0-.182-.515.739.739,0,0,0-.559-.191.891.891,0,0,0-.486.122.511.511,0,0,0-.237.324.061.061,0,0,1-.069.052l-.2-.029q-.064-.012-.052-.046a.734.734,0,0,1,.339-.5A1.262,1.262,0,0,1,57.1-3.113ZM56.933-.369a1.116,1.116,0,0,0,.634-.179.567.567,0,0,0,.269-.5v-.527a.02.02,0,0,0-.023-.023h-.666a1.146,1.146,0,0,0-.663.174.552.552,0,0,0-.252.481.5.5,0,0,0,.2.428A.828.828,0,0,0,56.933-.369ZM60.586-.1a1.132,1.132,0,0,1-.7-.214A1.036,1.036,0,0,1,59.5-.89a2.848,2.848,0,0,1-.075-.724,2.9,2.9,0,0,1,.075-.718,1,1,0,0,1,.382-.567,1.145,1.145,0,0,1,.7-.214A1.207,1.207,0,0,1,61.3-2.9a.905.905,0,0,1,.379.521,1.216,1.216,0,0,1,.035.162v.012q0,.041-.052.052l-.185.023H61.46q-.041,0-.052-.052l-.017-.081a.68.68,0,0,0-.272-.408.862.862,0,0,0-.533-.165.825.825,0,0,0-.53.168.744.744,0,0,0-.269.446,2.838,2.838,0,0,0-.052.62,2.708,2.708,0,0,0,.052.614.747.747,0,0,0,.269.452.825.825,0,0,0,.53.168.875.875,0,0,0,.536-.165.653.653,0,0,0,.269-.414L61.4-.982q.012-.064.069-.052l.179.029q.058.012.052.064l-.023.1a.894.894,0,0,1-.379.53A1.219,1.219,0,0,1,60.586-.1Zm2.449-.046a.051.051,0,0,1-.058-.058V-4.144a.051.051,0,0,1,.058-.058h.191a.051.051,0,0,1,.058.058v2.472a.019.019,0,0,0,.009.017q.009.006.02-.006l1.338-1.378a.1.1,0,0,1,.069-.029h.232q.035,0,.043.02T64.981-3l-.735.787a.026.026,0,0,0-.006.029l.892,1.963.006.023q0,.046-.052.046h-.2a.064.064,0,0,1-.064-.046l-.787-1.778Q64.02-2,64-1.978l-.706.73a.039.039,0,0,0-.012.029V-.206a.051.051,0,0,1-.058.058Zm5.02,0A.051.051,0,0,1,68-.206V-4.144a.051.051,0,0,1,.058-.058H69.4a1.265,1.265,0,0,1,.88.292,1.018,1.018,0,0,1,.324.8v1.876a1.018,1.018,0,0,1-.324.8,1.265,1.265,0,0,1-.88.292Zm.249-.3a.02.02,0,0,0,.023.023h1.089a.877.877,0,0,0,.64-.229.848.848,0,0,0,.24-.622V-3.078a.829.829,0,0,0-.234-.622.885.885,0,0,0-.646-.229H68.328a.02.02,0,0,0-.023.023Zm4.736.069A.845.845,0,0,0,73.507-.5a.852.852,0,0,0,.3-.345q.029-.052.075-.029l.151.075q.052.029.029.075a1,1,0,0,1-.4.452,1.214,1.214,0,0,1-.646.168,1.179,1.179,0,0,1-.689-.2.985.985,0,0,1-.388-.538,1.557,1.557,0,0,1-.064-.324q-.017-.179-.017-.452t.009-.428a1.554,1.554,0,0,1,.038-.266,1.036,1.036,0,0,1,.379-.585,1.121,1.121,0,0,1,.7-.22,1.117,1.117,0,0,1,.758.246,1.094,1.094,0,0,1,.353.68,2.236,2.236,0,0,1,.023.258q.006.148.006.368a.051.051,0,0,1-.058.058H72.184a.02.02,0,0,0-.023.023,2.624,2.624,0,0,0,.029.492.74.74,0,0,0,.287.449A.923.923,0,0,0,73.041-.374ZM72.2-2.239a2.539,2.539,0,0,0-.041.452.02.02,0,0,0,.023.023H73.8a.02.02,0,0,0,.023-.023,2.4,2.4,0,0,0-.029-.434.778.778,0,0,0-.278-.449.819.819,0,0,0-.527-.171.813.813,0,0,0-.521.165A.734.734,0,0,0,72.2-2.239Zm3.96,2.09a.068.068,0,0,1-.069-.046L75.131-3l-.006-.023q0-.041.052-.041h.22a.068.068,0,0,1,.069.046l.787,2.4a.019.019,0,0,0,.017.012.019.019,0,0,0,.017-.012l.787-2.4a.068.068,0,0,1,.069-.046l.214.006q.064,0,.046.064l-.955,2.8a.068.068,0,0,1-.069.046ZM79.6-.374A.845.845,0,0,0,80.061-.5a.852.852,0,0,0,.3-.345q.029-.052.075-.029l.151.075q.052.029.029.075a1,1,0,0,1-.4.452,1.214,1.214,0,0,1-.646.168,1.179,1.179,0,0,1-.689-.2.985.985,0,0,1-.388-.538,1.557,1.557,0,0,1-.064-.324q-.017-.179-.017-.452t.009-.428a1.554,1.554,0,0,1,.038-.266,1.036,1.036,0,0,1,.379-.585,1.121,1.121,0,0,1,.7-.22,1.117,1.117,0,0,1,.759.246,1.094,1.094,0,0,1,.353.68,2.236,2.236,0,0,1,.023.258q.006.148.006.368a.051.051,0,0,1-.058.058H78.738a.02.02,0,0,0-.023.023,2.624,2.624,0,0,0,.029.492.74.74,0,0,0,.287.449A.923.923,0,0,0,79.6-.374Zm-.84-1.864a2.539,2.539,0,0,0-.041.452.02.02,0,0,0,.023.023h1.615a.02.02,0,0,0,.023-.023,2.4,2.4,0,0,0-.029-.434.778.778,0,0,0-.278-.449.819.819,0,0,0-.527-.171.813.813,0,0,0-.521.165A.734.734,0,0,0,78.756-2.239ZM82.1-.149a.051.051,0,0,1-.058-.058V-4.144A.051.051,0,0,1,82.1-4.2h.191a.051.051,0,0,1,.058.058V-.206a.051.051,0,0,1-.058.058ZM84.864-.1a1.135,1.135,0,0,1-.695-.214,1.06,1.06,0,0,1-.394-.573,2.977,2.977,0,0,1-.064-.724,2.9,2.9,0,0,1,.064-.718,1.051,1.051,0,0,1,.391-.57,1.153,1.153,0,0,1,.7-.211,1.148,1.148,0,0,1,.7.214,1.025,1.025,0,0,1,.391.567,1.64,1.64,0,0,1,.046.3q.012.165.012.42T86-1.185a1.633,1.633,0,0,1-.046.3,1.025,1.025,0,0,1-.391.573A1.158,1.158,0,0,1,84.864-.1Zm0-.272a.822.822,0,0,0,.524-.171.773.773,0,0,0,.281-.449,2.963,2.963,0,0,0,.041-.614,3.387,3.387,0,0,0-.035-.614.762.762,0,0,0-.281-.452.84.84,0,0,0-.53-.168.828.828,0,0,0-.527.168.768.768,0,0,0-.278.452,3.175,3.175,0,0,0-.041.614,3.175,3.175,0,0,0,.041.614.768.768,0,0,0,.278.452A.828.828,0,0,0,84.864-.374Zm4.725-1.969a1.349,1.349,0,0,1,.052.3q.012.165.012.431t-.012.431a1.64,1.64,0,0,1-.046.3.988.988,0,0,1-.362.57,1.083,1.083,0,0,1-.68.211A.991.991,0,0,1,88.1-.2.808.808,0,0,1,87.777-.5q-.012-.012-.02-.009t-.009.02V.928a.051.051,0,0,1-.058.058H87.5a.051.051,0,0,1-.058-.058V-3.009a.051.051,0,0,1,.058-.058h.191a.051.051,0,0,1,.058.058v.278q0,.017.009.02t.02-.009a.808.808,0,0,1,.321-.292.991.991,0,0,1,.455-.1,1.063,1.063,0,0,1,.666.208A1.035,1.035,0,0,1,89.589-2.343ZM89.265-.93a.861.861,0,0,0,.064-.243,3.876,3.876,0,0,0,.017-.434,3.865,3.865,0,0,0-.017-.437A1.234,1.234,0,0,0,89.27-2.3a.67.67,0,0,0-.261-.394.793.793,0,0,0-.486-.151.682.682,0,0,0-.455.153.753.753,0,0,0-.246.391,1.022,1.022,0,0,0-.058.243,4.022,4.022,0,0,0-.017.446,4.022,4.022,0,0,0,.017.446,1.233,1.233,0,0,0,.058.255.722.722,0,0,0,.246.385.7.7,0,0,0,.455.148.768.768,0,0,0,.457-.136.677.677,0,0,0,.261-.356Zm2.808.556A.845.845,0,0,0,92.539-.5a.852.852,0,0,0,.3-.345q.029-.052.075-.029l.151.075q.052.029.029.075a1,1,0,0,1-.4.452A1.214,1.214,0,0,1,92.05-.1a1.179,1.179,0,0,1-.689-.2.985.985,0,0,1-.388-.538,1.557,1.557,0,0,1-.064-.324q-.017-.179-.017-.452t.009-.428a1.554,1.554,0,0,1,.038-.266,1.036,1.036,0,0,1,.379-.585,1.121,1.121,0,0,1,.7-.22,1.117,1.117,0,0,1,.758.246,1.094,1.094,0,0,1,.353.68,2.238,2.238,0,0,1,.023.258q.006.148.006.368A.051.051,0,0,1,93.1-1.5H91.216a.02.02,0,0,0-.023.023,2.624,2.624,0,0,0,.029.492.74.74,0,0,0,.287.449A.923.923,0,0,0,92.073-.374Zm-.84-1.864a2.539,2.539,0,0,0-.041.452.02.02,0,0,0,.023.023h1.615a.02.02,0,0,0,.023-.023,2.4,2.4,0,0,0-.029-.434.778.778,0,0,0-.278-.449.819.819,0,0,0-.527-.171.813.813,0,0,0-.521.165A.734.734,0,0,0,91.233-2.239Zm4.383-.851a.744.744,0,0,1,.336.069.058.058,0,0,1,.035.075l-.052.185a.049.049,0,0,1-.075.035.719.719,0,0,0-.29-.041.7.7,0,0,0-.536.246.858.858,0,0,0-.211.588V-.206a.051.051,0,0,1-.058.058h-.191a.051.051,0,0,1-.058-.058v-2.8a.051.051,0,0,1,.058-.058h.191a.051.051,0,0,1,.058.058v.394q0,.017.009.02t.014-.014a.953.953,0,0,1,.316-.353A.809.809,0,0,1,95.616-3.09Z" transform="translate(0 5.618)" fill="#3b3f48"/><path d="M-12802.5,1295.5l.227.152-3.7,5.4-.241-.159Z" transform="translate(12836.909 -1294.373)" fill="#3b3f48"/></g><path d="M12996.723-1181.009a9.261,9.261,0,0,1,1.985-6.378,8.035,8.035,0,0,1,6.009-2.5l7.633-.091v-4.278a7.12,7.12,0,0,0-6.914-6.731c-5.964,0-7.423,4.2-7.714,5.392v.274c-.124.565-.807.5-.807.5l.134-.647h.007c.15-.738,1.5-6.143,8.387-6.143a7.85,7.85,0,0,1,7.531,7.306v3.713h.013v7.172a9.81,9.81,0,0,1-2.4,6.617,8.791,8.791,0,0,1-6.634,2.466C13003.885-1174.333,12997.134-1174.409,12996.723-1181.009Zm8.008-8.25a7.434,7.434,0,0,0-5.553,2.283,8.8,8.8,0,0,0-1.835,5.921,5.879,5.879,0,0,0,3.413,5.323,8.321,8.321,0,0,0,3.193.774,8.188,8.188,0,0,0,6.176-2.27,9.348,9.348,0,0,0,2.237-6.176v-5.947Zm-52.5,7.619v-3.717h-.013v-7.169a9.8,9.8,0,0,1,2.407-6.617,8.781,8.781,0,0,1,6.629-2.469c.069,0,6.813.078,7.228,6.682a9.247,9.247,0,0,1-1.988,6.375,8.026,8.026,0,0,1-6.006,2.5l-7.633.088v4.278a7.128,7.128,0,0,0,6.91,6.734c5.967,0,7.427-4.2,7.721-5.392v-.274c.118-.568.8-.5.8-.5l-.131.65h-.01c-.15.732-1.5,6.14-8.381,6.14A7.848,7.848,0,0,1,12952.234-1181.639Zm2.848-17.071a9.333,9.333,0,0,0-2.233,6.172v5.947l7.629-.091a7.431,7.431,0,0,0,5.552-2.283,8.769,8.769,0,0,0,1.833-5.918c-.373-6.032-6.35-6.1-6.6-6.1A8.18,8.18,0,0,0,12955.082-1198.71Zm-30.63,24.376c-.065,0-6.812-.075-7.228-6.675a9.286,9.286,0,0,1,1.989-6.375,8.007,8.007,0,0,1,6.009-2.5l7.633-.088v-4.282a7.129,7.129,0,0,0-6.918-6.734c-5.96,0-7.42,4.206-7.71,5.4v.274c-.124.568-.807.5-.807.5l.134-.65h.006c.154-.738,1.5-6.146,8.387-6.146a7.86,7.86,0,0,1,7.531,7.309l0,.033v3.681h.01v7.172a9.817,9.817,0,0,1-2.407,6.62,8.778,8.778,0,0,1-6.63,2.463Zm.787-14.925a7.4,7.4,0,0,0-5.552,2.283,8.815,8.815,0,0,0-1.843,5.918,5.875,5.875,0,0,0,3.416,5.323,8.333,8.333,0,0,0,3.194.781,8.194,8.194,0,0,0,6.176-2.273,9.361,9.361,0,0,0,2.234-6.176v-5.947Zm17.488,14.21.007-.973h.017v-30.555h0v-.379c.079-.7.641-.653.641-.653l-.01.81v31.084c-.069.634-.529.666-.631.666Zm31.395-.134.432-.643h0l16.245-24.8.006.006.108-.163a.6.6,0,0,1,.816-.092l-.428.637-.011,0-16.179,24.706,0,0-.169.258a.559.559,0,0,1-.441.219A.725.725,0,0,1,12974.122-1175.183Z" transform="translate(-12876.999 1229.998)" fill="#3b3f48" stroke="rgba(0,0,0,0)" stroke-miterlimit="10" stroke-width="1"/><g transform="translate(97.124 28.994)"><rect width="0.624" height="29.691" transform="matrix(0.837, -0.548, 0.548, 0.837, 0.409, 0.716)" fill="#3b3f48"/><path d="M960.98,472.135l-.429-.635a.6.6,0,0,1,.818.089l.168.255Z" transform="translate(-960.551 -471.374)" fill="#3b3f48"/><path d="M1024.035,566.715l.43.643a.6.6,0,0,1-.825-.094l-.168-.258Z" transform="translate(-1006.855 -541.537)" fill="#3b3f48"/></g></g></g><text transform="translate(194 663)" fill="#87a194" font-size="12" font-family="Barlow-Medium, Barlow" font-weight="500" letter-spacing="0.15em"><tspan x="0" y="0">_ABOUT</tspan></text><path d="M2.368,6.144A1.658,1.658,0,0,1,1.192,5.72,1.374,1.374,0,0,1,.736,4.672a1.392,1.392,0,0,1,.456-1.064,1.658,1.658,0,0,1,1.176-.424,1.636,1.636,0,0,1,1.16.424,1.392,1.392,0,0,1,.456,1.064A1.374,1.374,0,0,1,3.528,5.72,1.636,1.636,0,0,1,2.368,6.144Zm1.36,1.928V17H.992V8.072Zm7.744-.1a3.24,3.24,0,0,1,2.5,1.016,3.963,3.963,0,0,1,.936,2.792V17h-2.72V12.152a1.959,1.959,0,0,0-.464-1.392,1.627,1.627,0,0,0-1.248-.5,1.627,1.627,0,0,0-1.248.5,1.959,1.959,0,0,0-.464,1.392V17H6.032V8.072H8.768V9.256a2.886,2.886,0,0,1,1.12-.936A3.561,3.561,0,0,1,11.472,7.976Z" transform="translate(-0.067 -2)" fill="none" stroke="#3b3f48" stroke-width="0.8"/></g></svg>