<svg xmlns="http://www.w3.org/2000/svg" xmlns:xlink="http://www.w3.org/1999/xlink" width="280" height="97" viewBox="0 0 280 97"><defs><clipPath id="b"><rect width="280" height="97"/></clipPath></defs><g id="a" clip-path="url(#b)"><g transform="translate(-745.022 -446.371)"><path d="M14220.73-706.121c-.035-.426-.9-11.008,5.794-18.585,4.032-4.562,9.92-7.011,17.5-7.269l22.248-.272v-12.469c-2.03-19.086-19.408-19.6-20.146-19.613-17.382,0-21.629,12.24-22.485,15.713v.795c-.354,1.654-2.346,1.461-2.346,1.461l.387-1.884.021,0c.44-2.145,4.362-17.9,24.437-17.9.212,0,19.767.534,21.944,21.289l0,.1v10.729h.04l-.007,20.9c.021.426.422,11.516-7,19.276-4.565,4.773-11.065,7.191-19.322,7.191C14241.6-686.666,14221.938-686.888,14220.73-706.121Zm23.341-24.039c-7.036.243-12.486,2.478-16.175,6.646-6.174,6.979-5.361,17.153-5.354,17.253.462,7.362,3.81,12.573,9.947,15.513a24.282,24.282,0,0,0,9.308,2.263c7.734,0,13.79-2.224,18-6.618,6.89-7.187,6.518-17.887,6.514-17.994l0-17.335ZM14091.1-707.954l-.008-.1v-10.728h-.035l0-20.9c-.018-.426-.419-11.516,7.009-19.276,4.562-4.773,11.064-7.19,19.318-7.19.2,0,19.863.222,21.067,19.455.035.423.9,11.008-5.794,18.585-4.032,4.562-9.92,7.008-17.5,7.269l-22.249.272V-708.1c2.027,19.083,19.405,19.6,20.146,19.613,17.375,0,21.625-12.229,22.481-15.71v-.8c.357-1.647,2.346-1.457,2.346-1.457l-.387,1.884-.019,0c-.44,2.141-4.361,17.9-24.439,17.9C14112.83-686.669,14093.271-687.2,14091.1-707.954Zm8.29-49.757c-6.887,7.187-6.514,17.883-6.511,17.991l-.007,17.339,22.245-.272c7.036-.244,12.482-2.482,16.171-6.646,6.174-6.979,5.36-17.153,5.354-17.253-1.1-17.575-18.514-17.776-19.255-17.776C14109.654-764.329,14103.6-762.105,14099.388-757.711Zm-110.312,51.591c-.035-.426-.9-11.008,5.794-18.585,4.032-4.562,9.92-7.011,17.5-7.269l22.248-.272v-12.469c-2.03-19.086-19.408-19.6-20.146-19.613-17.39,0-21.633,12.247-22.485,15.717v.791c-.354,1.654-2.345,1.461-2.345,1.461l.387-1.884.021,0c.44-2.145,4.361-17.9,24.436-17.9.212,0,19.767.534,21.944,21.289l0,.1v10.729h.039l-.007,20.9c.021.426.422,11.516-7,19.276-4.565,4.773-11.064,7.191-19.322,7.191C14009.946-686.666,13990.283-686.888,13989.076-706.121Zm23.341-24.039c-7.036.243-12.486,2.478-16.175,6.646-6.174,6.979-5.36,17.153-5.35,17.253.458,7.362,3.806,12.573,9.944,15.513a24.276,24.276,0,0,0,9.307,2.263c7.734,0,13.79-2.224,18-6.618,6.891-7.187,6.518-17.887,6.514-17.994l0-17.335Zm50.979,41.4.021-2.822.043,0v-89.051h-.015l0-1.1c.222-2.023,1.854-1.891,1.854-1.891l-.028,2.32v89.488l0,1.124c-.2,1.841-1.544,1.941-1.83,1.941A.3.3,0,0,1,14063.4-688.757Zm140.4-.662-.49-.752.007,0-47.157-72.005-.021.011-1.25-1.851a1.741,1.741,0,0,1,2.385.261l.312.473.019-.011,47.34,72.285.011-.007,1.25,1.873a2.067,2.067,0,0,1-1.121.369A1.654,1.654,0,0,1,14203.793-689.419Z" transform="translate(-13244 1230)" fill="#789182" stroke="rgba(0,0,0,0)" stroke-miterlimit="10" stroke-width="1"/><g transform="translate(910.877 465.612)"><rect width="86.521" height="1.818" transform="matrix(0.548, -0.837, 0.837, 0.548, 1.202, 73.472)" fill="#789182"/><path d="M1025.116,473.591l1.25-1.849a1.739,1.739,0,0,0-2.383.26l-.491.742Z" transform="translate(-975.052 -471.374)" fill="#789182"/><path d="M961.8,566.715l-1.253,1.873a1.756,1.756,0,0,0,2.4-.275l.492-.751Z" transform="translate(-960.545 -493.345)" fill="#789182"/></g></g></g></svg>